<svg width="50" height="46" viewBox="0 0 50 46" fill="none" xmlns="http://www.w3.org/2000/svg">
<path d="M9.04583 23.2625L0 14.2146L2.82917 11.3854C2.82917 11.3854 5.10417 12.9167 6.95833 11.0604C8.97708 9.04167 8.375 6.03333 12.85 2.66458C15.5083 0.6625 18.6187 0 21.5729 0C27.3917 0 32.6146 2.57083 32.6146 2.57083C23.175 3.51458 19.6229 7.25833 23.525 11.1604L25.8083 13.4417L18.4437 20.8063L16.2104 18.575C15.0354 17.4 13.2583 16.0812 11.9437 17.3937C10.4875 18.8479 11.875 20.4312 11.875 20.4312L9.04583 23.2625V23.2625ZM27.2812 14.9146L19.9167 22.2792L41.1104 44.3083C42.1271 45.325 43.4604 45.8333 44.7917 45.8333C47.6875 45.8333 50 43.4833 50 40.625C50 39.2437 49.45 37.9187 48.475 36.9417L27.2812 14.9146V14.9146ZM20.1125 28.4937L10.4583 37.8354C9.98125 38.3125 9.41042 38.6833 8.8125 38.9979L7.60417 39.6271L5.46875 44.0979L7.20417 45.8333L11.5812 43.6042L12.2083 42.3958C12.5229 41.8 12.9312 41.2604 13.4042 40.7833L23.0021 31.4979L20.1125 28.4937ZM32.9208 14.7667L41.075 6.71042C41.4271 6.35625 41.9979 6.36042 42.3479 6.71042C42.7 7.06458 42.7 7.63125 42.35 7.98333L34.1708 16.0646L35.9875 17.9542L44.2021 9.8375C44.5521 9.48542 45.1208 9.4875 45.475 9.83958C45.825 10.1896 45.8271 10.7583 45.475 11.1083L37.2333 19.2521L39.3542 21.4562L48.1792 12.7333C49.3937 11.5208 50 9.92917 50 8.3375C50 6.7375 49.3896 5.13542 48.1667 3.91042C46.9479 2.69167 45.3542 2.08333 43.7625 2.08333C42.1667 2.08333 40.575 2.69375 39.3583 3.91042L30.7042 12.4625L32.9208 14.7667V14.7667Z" fill="url(#paint0_linear_431_685)"/>
<defs>
<linearGradient id="paint0_linear_431_685" x1="50" y1="0" x2="7" y2="46" gradientUnits="userSpaceOnUse">
<stop stop-color="#81F8EE"/>
<stop offset="1" stop-color="#8184F8"/>
</linearGradient>
</defs>
</svg>
